<?xml version="1.0" encoding="utf-8"?>
<!-- Generator: Adobe Illustrator 24.0.1, SVG Export Plug-In . SVG Version: 6.00 Build 0)  -->
<svg version="1.1" id="Слой_1" xmlns="http://www.w3.org/2000/svg" xmlns:xlink="http://www.w3.org/1999/xlink" x="0px" y="0px"
	 viewBox="0 0 394 394" style="enable-background:new 0 0 394 394;" xml:space="preserve">
<style type="text/css">
	.st0{fill:#FFFFFF;}
</style>
<path class="st0" d="M372.8,0H21.6C15.4,0,9.7,3.4,6.8,9C4,14.5,4.5,21.3,8.1,26.4l128.7,181.3c0,0.1,0.1,0.1,0.1,0.2
	c4.7,6.3,7.2,14,7.2,21.8v147.8c0,4.4,1.7,8.6,4.8,11.7c3.1,3.1,7.3,4.9,11.7,4.9c2.2,0,4.4-0.4,6.5-1.3l72.3-27.6
	c6.5-2,10.8-8.1,10.8-15.5v-120c0-7.9,2.5-15.5,7.2-21.8c0-0.1,0.1-0.1,0.1-0.2L386.2,26.4c3.7-5.1,4.2-11.8,1.3-17.4
	C384.7,3.4,379,0,372.8,0z"/>
</svg>
